<svg xmlns="http://www.w3.org/2000/svg" viewBox="0 0 320 440" width="320" height="440" fill="none">
  <title>Peony — bud with stem (rose + sage)</title>
  <defs>
    <radialGradient id="p2-bud" cx="50%" cy="40%" r="55%">
      <stop offset="0%" stop-color="#D9A5B3" stop-opacity="0.92"></stop>
      <stop offset="70%" stop-color="#B5768A" stop-opacity="0.75"></stop>
      <stop offset="100%" stop-color="#7B4456" stop-opacity="0.45"></stop>
    </radialGradient>
    <linearGradient id="p2-stem" x1="0%" y1="0%" x2="0%" y2="100%">
      <stop offset="0%" stop-color="#7A8C6E" stop-opacity="0.85"></stop>
      <stop offset="100%" stop-color="#5D4030" stop-opacity="0.9"></stop>
    </linearGradient>
    <radialGradient id="p2-leaf" cx="50%" cy="50%" r="55%">
      <stop offset="0%" stop-color="#9AAE8C" stop-opacity="0.8"></stop>
      <stop offset="100%" stop-color="#63755A" stop-opacity="0.55"></stop>
    </radialGradient>
  </defs>
  
  <path d="M160,430 C158,360 156,280 160,210" stroke="url(#p2-stem)" stroke-width="5" stroke-linecap="round" fill="none" opacity="0.85"></path>
  
  <path d="M160,330 C110,310 70,330 55,370 C95,380 135,360 160,330 Z" fill="url(#p2-leaf)" opacity="0.85"></path>
  <path d="M160,280 C205,265 245,290 255,325 C215,330 180,315 160,280 Z" fill="url(#p2-leaf)" opacity="0.8"></path>
  <path d="M160,360 C175,335 215,330 250,355 C220,390 180,395 160,360 Z" fill="url(#p2-leaf)" opacity="0.55"></path>
  
  <path d="M125,215 C130,235 145,248 160,248 C175,248 190,235 195,215 C195,200 175,195 160,195 C145,195 125,200 125,215 Z" fill="#7A8C6E" opacity="0.75"></path>
  
  <path d="M120,160 C115,125 140,95 175,95 C205,95 225,120 225,155 C225,195 200,220 170,218 C140,216 122,195 120,160 Z" fill="url(#p2-bud)"></path>
  
  <path d="M145,150 C150,130 175,115 200,125 C210,130 215,145 210,160 C200,180 170,180 155,170 C148,165 143,158 145,150 Z" fill="#9B5F74" opacity="0.35"></path>
  <path d="M160,180 C155,165 170,150 190,155 C200,158 202,170 195,180 C185,190 168,190 160,180 Z" fill="#7B4456" opacity="0.4"></path>
  
  <ellipse cx="155" cy="130" rx="18" ry="28" fill="#EBC8D2" opacity="0.55"></ellipse>
</svg>